<?xml version="1.0" encoding="utf-8"?>
<!-- Generator: Adobe Illustrator 13.0.2, SVG Export Plug-In . SVG Version: 6.00 Build 14948)  -->
<svg version="1.2" baseProfile="tiny" id="Layer_1" xmlns="http://www.w3.org/2000/svg" xmlns:xlink="http://www.w3.org/1999/xlink"
	 x="0px" y="0px" width="247.553px" height="239.55px" viewBox="0 0 247.553 239.55" xml:space="preserve">
<g>
	<path fill="#010101" d="M140.875,112.312c0,7.327-5.938,13.262-13.264,13.262c-7.322,0-13.258-5.935-13.258-13.262
		c0-7.321,5.936-13.259,13.258-13.259C134.938,99.053,140.875,104.99,140.875,112.312z"/>
	<path fill="#010101" d="M188.321,6.819c-25.713,12.082,15.205,33.214-6.162,68.871c-10.095,16.853-35.693,21.294-30.239,47.666
		c9.097,43.945,95.633,24.409,95.633-35.269C247.553,48.151,219.176-7.681,188.321,6.819z"/>
	<path fill="#010101" d="M15.533,108.967c23.318,16.226,21.165-29.773,62.725-29.102c19.644,0.317,36.289,20.266,56.396,2.354
		C168.17,52.37,107.982-12.803,56.3,17.036C21.715,37.004-12.45,89.496,15.533,108.967z"/>
	<path fill="#010101" d="M184.708,213.898c2.393-28.306-36.367-3.439-56.563-39.771c-9.546-17.168-0.596-41.563-26.159-50.02
		c-42.607-14.097-68.958,70.612-17.273,100.449C119.298,244.528,181.84,247.868,184.708,213.898z"/>
	<path fill="#4BB048" d="M135.65,107.839c0,7.324-5.939,13.262-13.264,13.262c-7.322,0-13.258-5.938-13.258-13.262
		c0-7.321,5.936-13.257,13.258-13.257C129.711,94.582,135.65,100.518,135.65,107.839z"/>
	<path fill="#4BB048" d="M183.097,2.347c-25.713,12.08,15.202,33.214-6.162,68.871c-10.095,16.851-35.693,21.296-30.239,47.666
		c9.097,43.948,95.633,24.409,95.633-35.269C242.328,43.679,213.951-12.152,183.097,2.347z"/>
	<path fill="#4BB048" d="M10.309,104.494c23.318,16.226,21.165-29.773,62.725-29.102c19.644,0.317,36.289,20.269,56.398,2.356
		c33.514-29.851-26.674-95.024-78.356-65.184C16.49,32.531-17.675,85.023,10.309,104.494z"/>
	<path fill="#4BB048" d="M179.483,209.426c2.393-28.306-36.367-3.439-56.563-39.771c-9.546-17.168-0.596-41.563-26.159-50.02
		c-42.61-14.097-68.958,70.612-17.273,100.452C114.073,240.056,176.615,243.396,179.483,209.426z"/>
</g>
</svg>
