<?xml version="1.0" encoding="utf-8"?>
<!-- Generator: Adobe Illustrator 13.0.2, SVG Export Plug-In . SVG Version: 6.00 Build 14948)  -->
<svg version="1.2" baseProfile="tiny" id="Layer_1" xmlns="http://www.w3.org/2000/svg" xmlns:xlink="http://www.w3.org/1999/xlink"
	 x="0px" y="0px" width="240.931px" height="247.246px" viewBox="0 0 240.931 247.246" xml:space="preserve">
<g>
	<path fill="none" stroke="#000000" stroke-width="8.75" stroke-linecap="round" stroke-linejoin="round" d="M77.12,170.122
		c24.375,24.37,33.84,54.424,21.155,67.116c-12.683,12.693-42.737,3.206-67.112-21.154c-24.377-24.375-33.853-54.426-21.14-67.114
		C22.693,136.279,52.745,145.75,77.12,170.122z"/>
	<path fill="none" stroke="#387A42" stroke-width="8.75" stroke-linecap="round" stroke-linejoin="round" d="M77.181,164.101
		c24.373,24.365,33.835,54.422,21.152,67.114c-12.686,12.695-42.739,3.203-67.117-21.152c-24.37-24.378-33.85-54.429-21.138-67.114
		C22.754,130.255,52.808,139.726,77.181,164.101z"/>
	<path fill="none" stroke="#000000" stroke-width="8.75" stroke-linecap="round" stroke-linejoin="round" d="M127.598,120.012
		c35.732,35.715,49.605,79.768,31.014,98.378C140,237.001,95.948,223.093,60.21,187.38c-35.728-35.726-49.619-79.788-30.989-98.379
		C47.793,70.389,91.866,84.279,127.598,120.012z"/>
	<path fill="none" stroke="#418F45" stroke-width="8.75" stroke-linecap="round" stroke-linejoin="round" d="M127.604,113.994
		c35.732,35.718,49.602,79.768,31.01,98.379c-18.607,18.611-62.663,4.705-98.393-31.011c-35.737-35.726-49.624-79.786-30.996-98.379
		C47.793,64.371,91.868,78.26,127.604,113.994z"/>
	<path fill="none" stroke="#000000" stroke-width="8.75" stroke-linecap="round" stroke-linejoin="round" d="M182.301,64.814
		c49.369,49.353,68.545,110.229,42.844,135.938c-25.721,25.718-86.594,6.509-135.962-42.844
		C39.81,108.534,20.621,47.66,46.353,21.961C72.037-3.748,132.93,15.443,182.301,64.814z"/>
	<path fill="none" stroke="#48B049" stroke-width="8.75" stroke-linecap="round" stroke-linejoin="round" d="M182.262,58.642
		c49.369,49.354,68.545,110.225,42.846,135.936c-25.72,25.72-86.596,6.511-135.961-42.845
		C39.773,102.36,20.582,41.488,46.319,15.787C71.998-9.92,132.891,9.27,182.262,58.642z"/>
	<g>
		<path fill="#77ABD4" d="M234.339,86.862c0,43.21-35.029,78.237-78.242,78.237c-43.209,0-78.241-35.026-78.241-78.237
			c0-43.219,35.032-78.25,78.241-78.25C199.31,8.613,234.339,43.643,234.339,86.862z"/>
		<path fill="#4D85B0" d="M206.819,28c3.655,9.004,5.684,18.836,5.684,29.152c0,42.863-34.753,77.621-77.622,77.621
			c-20.044,0-38.316-7.605-52.087-20.082c11.001,29.896,39.734,51.222,73.447,51.222c43.216,0,78.245-35.024,78.245-78.24
			C234.485,63.752,223.733,42.353,206.819,28z"/>
		<path fill="none" stroke="#000000" stroke-width="6.2494" stroke-linecap="round" stroke-linejoin="round" d="M234.339,86.862
			c0,43.21-35.029,78.237-78.242,78.237c-43.209,0-78.241-35.026-78.241-78.237c0-43.219,35.032-78.25,78.241-78.25
			C199.31,8.613,234.339,43.643,234.339,86.862z"/>
		<g>
			<path fill="#FFFFFF" d="M140.242,61.274c0,4.897-3.965,8.866-8.862,8.866c-4.899,0-8.867-3.969-8.867-8.866
				c0-4.898,3.968-8.867,8.867-8.867C136.277,52.407,140.242,56.375,140.242,61.274z"/>
		</g>
	</g>
</g>
</svg>
