<?xml version="1.0" encoding="utf-8"?>
<!-- Generator: Adobe Illustrator 13.0.2, SVG Export Plug-In . SVG Version: 6.00 Build 14948)  -->
<svg version="1.2" baseProfile="tiny" id="Layer_1" xmlns="http://www.w3.org/2000/svg" xmlns:xlink="http://www.w3.org/1999/xlink"
	 x="0px" y="0px" width="254.395px" height="211.306px" viewBox="0 0 254.395 211.306" xml:space="preserve">
<g>
	<g>
		<path fill="#D7D7D7" stroke="#D7D7D7" stroke-width="2.5" stroke-linecap="round" stroke-linejoin="round" d="M134.863,208.181
			c0-64.51-58.972-116.812-131.738-116.812v116.888h128.992"/>
		<path fill="none" stroke="#010101" stroke-width="6.25" stroke-linecap="round" stroke-linejoin="round" d="M134.863,208.181
			c0-64.51-58.972-116.812-131.738-116.812"/>
	</g>
	<path fill="none" stroke="#000000" stroke-width="8.75" stroke-linecap="round" stroke-linejoin="round" d="M76.714,142.722
		c17.686,15.682,24.558,35.02,15.352,43.191c-9.224,8.174-31.047,2.074-48.73-13.613c-17.693-15.689-24.568-35.029-15.342-43.203
		C37.188,120.927,59.011,127.031,76.714,142.722z"/>
	<path fill="none" stroke="#CB2129" stroke-width="8.75" stroke-linecap="round" stroke-linejoin="round" d="M76.692,137.646
		c17.698,15.68,24.561,35.02,15.354,43.191c-9.214,8.172-31.028,2.078-48.723-13.613c-17.69-15.688-24.578-35.039-15.352-43.201
		C37.178,115.852,58.997,121.956,76.692,137.646z"/>
	<path fill="#69471C" stroke="#010101" stroke-width="6.25" stroke-linecap="round" stroke-linejoin="round" d="M52.085,144.319
		c-4.983,7.38,6.714,20.403,15.43,16.65c59.241-27.591,47.791-55.84,98.32-82.632c29.401-15.583,75.42-0.806,85.435-49.133
		c-17.48,35.747-43.943,22.146-86.934,36.194C112.322,82.395,103.105,129.41,52.085,144.319z"/>
	<g>
		<g>
			<path fill="#010101" d="M102.288,26.145L49.575,67.749l60.015,3.818L102.288,26.145z M85.93,38.096L40.835,6.074L21.89,20.662
				l44.49,31.931L85.93,38.096z"/>
		</g>
		<g>
			<path fill="none" stroke="#010101" stroke-width="2.5" stroke-linecap="round" stroke-linejoin="round" d="M102.288,26.145
				L49.575,67.749l60.015,3.818L102.288,26.145z M85.93,38.096L40.835,6.074L21.89,20.662l44.49,31.931L85.93,38.096z"/>
		</g>
	</g>
	<g>
		<g>
			<path fill="#CB2129" d="M101.758,20.2L49.045,61.807l60.015,3.818L101.758,20.2z M84.28,33.271L39.185,1.25L22.48,13.596
				l44.492,31.931L84.28,33.271z"/>
		</g>
		<g>
			<path fill="none" stroke="#CB2129" stroke-width="2.5" stroke-linecap="round" stroke-linejoin="round" d="M101.758,20.2
				L49.045,61.807l60.015,3.818L101.758,20.2z M84.28,33.271L39.185,1.25L22.48,13.596l44.492,31.931L84.28,33.271z"/>
		</g>
	</g>
</g>
</svg>
