<?xml version="1.0" encoding="utf-8"?>
<!-- Generator: Adobe Illustrator 13.0.2, SVG Export Plug-In . SVG Version: 6.00 Build 14948)  -->
<svg version="1.2" baseProfile="tiny" id="Layer_1" xmlns="http://www.w3.org/2000/svg" xmlns:xlink="http://www.w3.org/1999/xlink"
	 x="0px" y="0px" width="217.7px" height="253.403px" viewBox="0 0 217.7 253.403" xml:space="preserve">
<g>
	<path fill="#69471C" stroke="#010101" stroke-width="6.25" stroke-linecap="round" stroke-linejoin="round" d="M3.125,46.108
		c60.903,0,84.54,30.874,97.991,78.179c15.354,53.985,46.001,80.593,77.156,80.593c19.143,0,29.584-7.808,36.303-18.472
		c-35.439,25.285-80.609-6.834-93.864-62.49C108.344,71.997,87.225,18.989,3.125,14.937"/>
	<path fill="#69471C" stroke="#010101" stroke-width="6.25" stroke-linecap="round" stroke-linejoin="round" d="M3.125,90.5
		c55.116-0.227,57.848,31.702,70.667,79.18c17.675,65.441,53.124,80.598,83.228,80.598c17.185,0,28.124-10.642,33.268-19.482
		c-29.426,25.291-86.288-0.117-97.912-61.479c-9.48-50.027-14.55-105.149-89.25-109.988"/>
	<g>
		<g>
			<polygon fill="#CB2128" points="202.336,32.847 173.86,32.847 173.86,4.375 148.502,4.375 148.502,32.847 120.01,32.847 
				120.01,58.25 148.502,58.25 148.502,86.704 173.86,86.704 173.86,58.25 202.336,58.25 			"/>
		</g>
		<g>
			<polygon fill="none" stroke="#FFFFFF" stroke-width="8.75" stroke-linecap="round" stroke-linejoin="round" points="
				202.336,32.847 173.86,32.847 173.86,4.375 148.502,4.375 148.502,32.847 120.01,32.847 120.01,58.25 148.502,58.25 
				148.502,86.704 173.86,86.704 173.86,58.25 202.336,58.25 			"/>
		</g>
	</g>
</g>
</svg>
