<?xml version="1.0" encoding="utf-8"?>
<!-- Generator: Adobe Illustrator 13.0.2, SVG Export Plug-In . SVG Version: 6.00 Build 14948)  -->
<svg version="1.2" baseProfile="tiny" id="Layer_1" xmlns="http://www.w3.org/2000/svg" xmlns:xlink="http://www.w3.org/1999/xlink"
	 x="0px" y="0px" width="245.706px" height="250.002px" viewBox="0 0 245.706 250.002" xml:space="preserve">
<g>
	<g>
		<polyline stroke="#000000" stroke-width="2.5" stroke-linecap="round" stroke-linejoin="round" points="162.263,165.826 
			109.967,151.099 124.05,137.004 63.561,76.506 72.946,67.118 133.435,127.613 147.537,113.512 162.263,165.826 		"/>
		<polyline fill="#48B049" stroke="#48B049" stroke-width="2.5" stroke-linecap="round" stroke-linejoin="round" points="
			161.619,159.241 109.305,144.519 123.401,130.429 62.912,69.944 72.301,60.55 132.795,121.029 146.892,106.926 161.619,159.241 		
			"/>
	</g>
	<g>
		<polyline stroke="#000000" stroke-width="2.5" stroke-linecap="round" stroke-linejoin="round" points="161.58,167.07 
			213.875,181.799 199.792,195.896 243.254,239.363 233.87,248.752 190.408,205.286 176.306,219.387 161.58,167.07 		"/>
		<polyline fill="#48B049" stroke="#48B049" stroke-width="2.5" stroke-linecap="round" stroke-linejoin="round" points="
			162.776,160.388 215.09,175.107 200.994,189.199 244.456,232.654 235.066,242.053 191.599,198.599 177.502,212.701 
			162.776,160.388 		"/>
	</g>
	<g>
		<path fill="#77ABD4" stroke="#000000" stroke-width="6.25" d="M116.706,59.912c0,31.351-25.42,56.775-56.787,56.775
			c-31.374,0-56.793-25.424-56.793-56.775c0-31.357,25.42-56.787,56.793-56.787C91.286,3.125,116.706,28.555,116.706,59.912z"/>
		<path fill="#FFFFFF" d="M44.657,37.264c0,3.18-2.56,5.731-5.736,5.731c-3.17,0-5.731-2.551-5.731-5.731
			c0-3.172,2.561-5.731,5.731-5.731C42.097,31.533,44.657,34.092,44.657,37.264z"/>
	</g>
	<g>
		<path fill="#FFFFFF" stroke="#FFFFFF" stroke-width="1.25" stroke-linecap="round" stroke-linejoin="round" d="M78.329,94.504
			L47.84,50.664c-3.259-4.626-6.202-9.778-6.202-9.778h-0.211c0,0,0.421,4.521,0.421,8.516v45.103H31.019V24.486h11.88L71.6,65.698
			c3.786,5.466,7.045,11.144,7.045,11.144h0.21c0,0-0.421-4.941-0.421-10.303V24.486h10.829v70.019H78.329z"/>
	</g>
</g>
</svg>
