<?xml version="1.0" encoding="utf-8"?>
<!-- Generator: Adobe Illustrator 13.0.2, SVG Export Plug-In . SVG Version: 6.00 Build 14948)  -->
<svg version="1.2" baseProfile="tiny" id="Layer_1" xmlns="http://www.w3.org/2000/svg" xmlns:xlink="http://www.w3.org/1999/xlink"
	 x="0px" y="0px" width="252.271px" height="259.146px" viewBox="0 0 252.271 259.146" xml:space="preserve">
<g>
	<polyline stroke="#000000" stroke-width="1.7246" stroke-linecap="round" stroke-linejoin="round" points="126.131,258.283 
		149.884,215.935 132.078,215.935 132.078,139.499 120.212,139.499 120.212,215.935 102.393,215.935 126.131,258.283 	"/>
	<polyline stroke="#000000" stroke-width="1.7246" stroke-linecap="round" stroke-linejoin="round" points="126.131,6.487 
		149.884,48.837 132.078,48.837 132.078,125.274 120.212,125.274 120.212,48.837 102.393,48.837 126.131,6.487 	"/>
	<polyline stroke="#000000" stroke-width="1.7246" stroke-linecap="round" stroke-linejoin="round" points="251.409,131.765 
		209.058,108.012 209.058,125.818 132.622,125.818 132.622,137.686 209.058,137.686 209.058,155.505 251.409,131.765 	"/>
	<polyline stroke="#000000" stroke-width="1.7246" stroke-linecap="round" stroke-linejoin="round" points="0.862,131.765 
		43.213,108.012 43.213,125.818 119.649,125.818 119.649,137.686 43.213,137.686 43.213,155.505 0.862,131.765 	"/>
	<polyline stroke="#000000" stroke-width="1.7246" stroke-linecap="round" stroke-linejoin="round" points="216.316,223.195 
		203.167,176.455 190.571,189.045 136.521,134.994 128.138,143.386 182.181,197.436 169.583,210.036 216.316,223.195 	"/>
	<polyline stroke="#000000" stroke-width="1.7246" stroke-linecap="round" stroke-linejoin="round" points="34.07,40.947 
		80.811,54.104 68.221,66.694 122.27,120.743 113.879,129.134 59.83,75.085 47.229,87.682 34.07,40.947 	"/>
	<polyline stroke="#000000" stroke-width="1.7246" stroke-linecap="round" stroke-linejoin="round" points="218.191,40.947 
		171.453,54.104 184.046,66.694 129.995,120.743 138.387,129.134 192.435,75.085 205.037,87.682 218.191,40.947 	"/>
	<polyline stroke="#000000" stroke-width="1.7246" stroke-linecap="round" stroke-linejoin="round" points="36.57,223.195 
		49.729,176.455 62.317,189.045 116.368,134.994 124.759,143.386 70.71,197.436 83.305,210.036 36.57,223.195 	"/>
	<g>
		<polyline fill="#48B049" stroke="#48B049" stroke-width="1.7246" stroke-linecap="round" stroke-linejoin="round" points="
			126.132,247.658 149.884,205.31 132.078,205.31 132.078,128.873 120.212,128.873 120.212,205.31 102.393,205.31 126.132,247.658 
					"/>
		<polyline fill="#48B049" stroke="#48B049" stroke-width="1.7246" stroke-linecap="round" stroke-linejoin="round" points="
			126.132,0.862 149.884,43.212 132.078,43.212 132.078,119.649 120.212,119.649 120.212,43.212 102.393,43.212 126.132,0.862 		"/>
		<polyline fill="#48B049" stroke="#48B049" stroke-width="1.7246" stroke-linecap="round" stroke-linejoin="round" points="
			251.409,124.265 209.058,100.512 209.058,118.318 132.622,118.318 132.622,130.186 209.058,130.186 209.058,148.005 
			251.409,124.265 		"/>
		<polyline fill="#48B049" stroke="#48B049" stroke-width="1.7246" stroke-linecap="round" stroke-linejoin="round" points="
			0.862,124.265 43.213,100.512 43.213,118.318 119.649,118.318 119.649,130.186 43.213,130.186 43.213,148.005 0.862,124.265 		"/>
		<polyline fill="#48B049" stroke="#48B049" stroke-width="1.7246" stroke-linecap="round" stroke-linejoin="round" points="
			218.191,216.32 205.042,169.58 192.446,182.17 138.396,128.12 130.013,136.511 184.056,190.561 171.458,203.161 218.191,216.32 		
			"/>
		<polyline fill="#48B049" stroke="#48B049" stroke-width="1.7246" stroke-linecap="round" stroke-linejoin="round" points="
			34.07,32.197 80.811,45.354 68.221,57.944 122.27,111.993 113.879,120.384 59.83,66.335 47.229,78.932 34.07,32.197 		"/>
		<polyline fill="#48B049" stroke="#48B049" stroke-width="1.7246" stroke-linecap="round" stroke-linejoin="round" points="
			218.191,32.197 171.453,45.354 184.046,57.944 129.995,111.993 138.387,120.384 192.435,66.335 205.037,78.932 218.191,32.197 		
			"/>
		<polyline fill="#48B049" stroke="#48B049" stroke-width="1.7246" stroke-linecap="round" stroke-linejoin="round" points="
			34.07,216.32 47.229,169.58 59.817,182.17 113.868,128.12 122.259,136.511 68.21,190.561 80.805,203.161 34.07,216.32 		"/>
	</g>
	<g>
		<path fill="#77ABD4" d="M171.665,123.764c0,25.315-20.521,45.837-45.837,45.837c-25.313,0-45.839-20.522-45.839-45.837
			c0-25.32,20.526-45.842,45.839-45.842C151.144,77.922,171.665,98.444,171.665,123.764z"/>
		<path fill="#4D85B0" d="M155.542,89.279c2.142,5.274,3.33,11.036,3.33,17.079c0,25.113-20.358,45.475-45.472,45.475
			c-11.745,0-22.45-4.458-30.516-11.768c6.444,17.517,23.276,30.01,43.027,30.01c25.316,0,45.839-20.518,45.839-45.836
			C171.751,110.226,165.454,97.688,155.542,89.279z"/>
		<path fill="none" stroke="#000000" stroke-width="6.25" stroke-linecap="round" stroke-linejoin="round" d="M171.665,123.764
			c0,25.315-20.521,45.837-45.837,45.837c-25.313,0-45.839-20.522-45.839-45.837c0-25.32,20.526-45.842,45.839-45.842
			C151.144,77.922,171.665,98.444,171.665,123.764z"/>
		<g>
			<path fill="#FFFFFF" d="M116.542,108.774c0,2.869-2.325,5.194-5.192,5.194c-2.873,0-5.197-2.325-5.197-5.194
				c0-2.87,2.324-5.195,5.197-5.195C114.217,103.579,116.542,105.904,116.542,108.774z"/>
		</g>
	</g>
</g>
</svg>
