<?xml version="1.0" encoding="utf-8"?>
<!-- Generator: Adobe Illustrator 13.0.2, SVG Export Plug-In . SVG Version: 6.00 Build 14948)  -->
<svg version="1.2" baseProfile="tiny" id="Layer_1" xmlns="http://www.w3.org/2000/svg" xmlns:xlink="http://www.w3.org/1999/xlink"
	 x="0px" y="0px" width="255.481px" height="225.018px" viewBox="0 0 255.481 225.018" xml:space="preserve">
<g>
	<g>
		<g>
			<path fill="none" stroke="#000000" stroke-width="8.307" stroke-linecap="round" stroke-linejoin="round" d="M207.271,10.272
				c10.175-0.167,20.684,0.536,31.462,2.083"/>
			<path fill="none" stroke="#000000" stroke-width="8.307" stroke-linecap="round" stroke-linejoin="round" d="M163.53,16.572
				c11.431-3.787,18.227-4.941,30.94-5.874"/>
			<path fill="none" stroke="#000000" stroke-width="8.307" stroke-linecap="round" stroke-linejoin="round" d="M124.311,36.937
				c8.488-6.355,17.047-11.561,26.782-15.626"/>
			<path fill="none" stroke="#000000" stroke-width="8.307" stroke-linecap="round" stroke-linejoin="round" d="M94.784,67.724
				c6.534-9.341,10.875-15.731,18.876-22.761"/>
		</g>
		<g>
			<path fill="none" stroke="#000000" stroke-width="8.307" stroke-linecap="round" stroke-linejoin="round" d="M228.277,90.478
				c9.332,7.625,15.445,14.82,23.051,25.042"/>
			<path fill="none" stroke="#000000" stroke-width="8.307" stroke-linecap="round" stroke-linejoin="round" d="M189.94,67.907
				c9.926,3.748,19.227,8.685,27.885,14.704"/>
			<path fill="none" stroke="#000000" stroke-width="8.307" stroke-linecap="round" stroke-linejoin="round" d="M148.118,59.519
				c11.393,0.494,19.243,1.104,29.467,4.077"/>
		</g>
		<g>
			<path fill="none" stroke="#000000" stroke-width="8.307" stroke-linecap="round" stroke-linejoin="round" d="M203.004,190.222
				c-1.972,11.153-4.869,18.68-9.767,29.626"/>
			<path fill="none" stroke="#000000" stroke-width="8.307" stroke-linecap="round" stroke-linejoin="round" d="M204.163,149.334
				c1.485,9.887,1.694,18.596,0.723,28.481"/>
			<path fill="none" stroke="#000000" stroke-width="8.307" stroke-linecap="round" stroke-linejoin="round" d="M191.867,109.352
				c4.83,9.576,7.725,18.106,9.967,27.886"/>
		</g>
		<g>
			<path fill="none" stroke="#000000" stroke-width="8.307" stroke-linecap="round" stroke-linejoin="round" d="M61.713,37.342
				c1.973-11.156,4.87-18.088,9.768-29.035"/>
			<path fill="none" stroke="#000000" stroke-width="8.307" stroke-linecap="round" stroke-linejoin="round" d="M60.555,80.602
				c-1.488-9.885-1.694-20.969-0.723-30.854"/>
			<path fill="none" stroke="#000000" stroke-width="8.307" stroke-linecap="round" stroke-linejoin="round" d="M72.851,118.806
				c-4.83-9.579-7.725-15.735-9.966-25.512"/>
		</g>
		<g>
			<path fill="none" stroke="#000000" stroke-width="8.307" stroke-linecap="round" stroke-linejoin="round" d="M28.984,140.669
				c-9.332-7.624-14.853-14.819-22.457-25.041"/>
			<path fill="none" stroke="#000000" stroke-width="8.307" stroke-linecap="round" stroke-linejoin="round" d="M67.914,163.241
				c-9.927-3.749-19.226-8.686-27.883-14.704"/>
			<path fill="none" stroke="#000000" stroke-width="8.307" stroke-linecap="round" stroke-linejoin="round" d="M109.736,171.629
				c-11.392-0.494-18.651-1.104-28.873-4.077"/>
		</g>
		<g>
			<path fill="none" stroke="#000000" stroke-width="8.307" stroke-linecap="round" stroke-linejoin="round" d="M51.62,220.84
				c-10.173,0.167-20.091-0.535-30.869-2.083"/>
			<path fill="none" stroke="#000000" stroke-width="8.307" stroke-linecap="round" stroke-linejoin="round" d="M97.144,213.947
				c-11.434,3.787-19.417,5.532-32.127,6.466"/>
			<path fill="none" stroke="#000000" stroke-width="8.307" stroke-linecap="round" stroke-linejoin="round" d="M135.174,194.176
				c-8.488,6.355-16.452,10.968-26.189,15.033"/>
			<path fill="none" stroke="#000000" stroke-width="8.307" stroke-linecap="round" stroke-linejoin="round" d="M164.703,163.389
				c-6.535,9.34-10.876,16.324-18.877,23.354"/>
		</g>
	</g>
	<g>
		<g>
			<path fill="none" stroke="#48B049" stroke-width="8.307" stroke-linecap="round" stroke-linejoin="round" d="M204.305,4.932
				c10.175-0.167,20.684,0.536,31.462,2.084"/>
			<path fill="none" stroke="#48B049" stroke-width="8.307" stroke-linecap="round" stroke-linejoin="round" d="M160.563,11.232
				c11.431-3.787,18.227-4.941,30.94-5.873"/>
			<path fill="none" stroke="#48B049" stroke-width="8.307" stroke-linecap="round" stroke-linejoin="round" d="M121.344,31.596
				c8.488-6.355,17.047-11.561,26.782-15.626"/>
			<path fill="none" stroke="#48B049" stroke-width="8.307" stroke-linecap="round" stroke-linejoin="round" d="M91.817,62.384
				c6.534-9.341,10.875-15.731,18.876-22.761"/>
		</g>
		<g>
			<path fill="none" stroke="#48B049" stroke-width="8.307" stroke-linecap="round" stroke-linejoin="round" d="M227.091,85.137
				c9.332,7.626,15.445,14.82,23.051,25.042"/>
			<path fill="none" stroke="#48B049" stroke-width="8.307" stroke-linecap="round" stroke-linejoin="round" d="M188.754,62.567
				c9.926,3.748,19.227,8.685,27.884,14.704"/>
			<path fill="none" stroke="#48B049" stroke-width="8.307" stroke-linecap="round" stroke-linejoin="round" d="M146.932,54.179
				c11.393,0.494,19.243,1.103,29.467,4.077"/>
		</g>
		<g>
			<path fill="none" stroke="#48B049" stroke-width="8.307" stroke-linecap="round" stroke-linejoin="round" d="M198.257,185.475
				c-1.972,11.153-4.869,18.68-9.767,29.627"/>
			<path fill="none" stroke="#48B049" stroke-width="8.307" stroke-linecap="round" stroke-linejoin="round" d="M199.416,144.587
				c1.486,9.887,1.694,18.596,0.723,28.481"/>
			<path fill="none" stroke="#48B049" stroke-width="8.307" stroke-linecap="round" stroke-linejoin="round" d="M187.12,104.604
				c4.831,9.577,7.725,18.106,9.967,27.886"/>
		</g>
		<g>
			<path fill="none" stroke="#48B049" stroke-width="8.307" stroke-linecap="round" stroke-linejoin="round" d="M56.967,33.188
				c1.972-11.155,4.87-18.088,9.767-29.035"/>
			<path fill="none" stroke="#48B049" stroke-width="8.307" stroke-linecap="round" stroke-linejoin="round" d="M55.808,76.448
				c-1.488-9.886-1.694-20.969-0.723-30.855"/>
			<path fill="none" stroke="#48B049" stroke-width="8.307" stroke-linecap="round" stroke-linejoin="round" d="M68.104,114.652
				c-4.83-9.58-7.725-15.735-9.966-25.512"/>
		</g>
		<g>
			<path fill="none" stroke="#48B049" stroke-width="8.307" stroke-linecap="round" stroke-linejoin="round" d="M26.61,134.143
				c-9.332-7.625-14.853-14.819-22.457-25.042"/>
			<path fill="none" stroke="#48B049" stroke-width="8.307" stroke-linecap="round" stroke-linejoin="round" d="M65.54,156.714
				c-9.927-3.748-19.226-8.686-27.883-14.704"/>
			<path fill="none" stroke="#48B049" stroke-width="8.307" stroke-linecap="round" stroke-linejoin="round" d="M107.363,165.102
				c-11.392-0.494-18.651-1.104-28.873-4.076"/>
		</g>
		<g>
			<path fill="none" stroke="#48B049" stroke-width="8.307" stroke-linecap="round" stroke-linejoin="round" d="M48.653,215.5
				c-10.173,0.167-20.091-0.535-30.869-2.083"/>
			<path fill="none" stroke="#48B049" stroke-width="8.307" stroke-linecap="round" stroke-linejoin="round" d="M94.177,208.606
				c-11.434,3.787-19.417,5.533-32.127,6.467"/>
			<path fill="none" stroke="#48B049" stroke-width="8.307" stroke-linecap="round" stroke-linejoin="round" d="M132.207,188.836
				c-8.488,6.355-16.452,10.968-26.189,15.033"/>
			<path fill="none" stroke="#48B049" stroke-width="8.307" stroke-linecap="round" stroke-linejoin="round" d="M161.736,158.049
				c-6.535,9.34-10.876,16.324-18.877,23.354"/>
		</g>
	</g>
	<g>
		<circle fill="#77ABD4" cx="127.998" cy="110.091" r="43.456"/>
		<path fill="#4D85B0" d="M156.164,77.405c2.035,5,3.159,10.46,3.159,16.19c0,23.803-19.301,43.109-43.109,43.109
			c-11.135,0-21.284-4.226-28.931-11.153c6.112,16.604,22.067,28.448,40.793,28.448c24,0,43.457-19.452,43.457-43.454
			C171.533,97.26,165.561,85.378,156.164,77.405z"/>
		
			<circle fill="none" stroke="#000000" stroke-width="5.9336" stroke-linecap="round" stroke-linejoin="round" cx="127.998" cy="110.091" r="43.456"/>
		<g>
			<path fill="#FFFFFF" d="M119.19,95.885c0,2.716-2.202,4.92-4.918,4.92c-2.726,0-4.93-2.204-4.93-4.92
				c0-2.721,2.205-4.93,4.93-4.93C116.988,90.955,119.19,93.164,119.19,95.885z"/>
		</g>
	</g>
</g>
</svg>
